<?xml version="1.0" encoding="UTF-8"?>
<svg id="_레이어_1" xmlns="http://www.w3.org/2000/svg" version="1.1" viewBox="0 0 156 42">
  <!-- Generator: Adobe Illustrator 30.2.1, SVG Export Plug-In . SVG Version: 2.1.1 Build 1)  -->
  <defs>
    <style>
      .st0 {
        fill: #00ff78;
      }

      .st1 {
        fill: #dcdcdc;
      }
    </style>
  </defs>
  <path class="st0" d="M144.48,32.58c3.54,0,6.44-2.9,6.44-6.44s-2.94-6.53-6.44-6.53-6.49,2.94-6.49,6.53,2.9,6.44,6.49,6.44M132.91,25.84v-6.96c0-9.39,6.07-13.49,16.81-13.49v4.95c-8.86,0-11.89,3.44-11.89,8.31,1.38-2.43,4.36-3.79,8-3.79,6.57,0,10.16,5.04,10.16,11.31s-5.29,11.18-11.52,11.18-11.56-4.05-11.56-11.52"/>
  <path class="st1" d="M101.86,22.31h-3.98l-4.49,14.61h1.09l2.08-6.79h6.62l2.08,6.79h1.09l-4.49-14.61ZM96.88,29.1l1.76-5.76h2.47l1.76,5.76h-5.99Z"/>
  <path class="st1" d="M68.77,5.83l-2.76,13.58h-2.68l-1.59-6.27,1.86-7.31h-4.78l1.86,7.31-1.59,6.28h-2.68l-2.76-13.58h-1.08l3.02,14.61h4.28l1.33-5.22,1.33,5.22h4.28l3.02-14.61h-1.08ZM60.16,6.86h2.11l-1.06,4.4-1.06-4.4Z"/>
  <polygon class="st1" points="91.85 6.86 91.85 5.83 82.34 5.83 82.34 20.44 91.91 20.44 91.91 19.41 83.37 19.41 83.37 13.65 91.09 13.65 91.09 12.62 83.37 12.62 83.37 6.86 91.85 6.86"/>
  <polygon class="st1" points="80.75 6.86 80.75 5.83 71.24 5.83 71.24 20.44 80.81 20.44 80.81 19.41 72.27 19.41 72.27 13.65 80 13.65 80 12.62 72.27 12.62 72.27 6.86 80.75 6.86"/>
  <polygon class="st1" points="72.34 23.34 72.34 22.31 63.27 22.31 63.27 36.92 72.4 36.92 72.4 35.89 64.31 35.89 64.31 30.13 71.59 30.13 71.59 29.1 64.31 29.1 64.31 23.34 72.34 23.34"/>
  <polygon class="st1" points="104.86 5.83 103.53 5.83 97.88 12.62 94.44 12.62 94.44 5.83 93.41 5.83 93.41 20.44 94.44 20.44 94.44 13.65 97.88 13.65 103.53 20.44 104.86 20.44 98.78 13.14 104.86 5.83"/>
  <polygon class="st1" points="62.2 23.34 62.2 22.31 52.99 22.31 52.99 36.92 54.02 36.92 54.02 30.13 60.4 30.13 60.4 29.1 54.02 29.1 54.02 23.34 62.2 23.34"/>
  <polygon class="st1" points="75.02 24.21 75.02 23.34 83.51 23.34 83.51 22.31 73.98 22.31 73.98 24.68 83.59 33.31 83.59 35.89 73.45 35.89 73.45 36.92 84.62 36.92 84.62 32.83 75.02 24.21"/>
  <polygon class="st1" points="84.51 22.31 84.51 23.34 89.68 23.34 89.68 36.92 90.71 36.92 90.71 23.34 95.89 23.34 95.89 22.31 84.51 22.31"/>
  <path class="st0" d="M12.81,10.27h2.96l3.95,12.93h-10.84l3.93-12.93ZM9.61,5.83L0,36.92h4.71l2.82-9.28h13.55l2.84,9.28h4.71L18.97,5.83h-9.36Z"/>
  <polygon class="st0" points="30.17 5.83 30.17 10.27 37.67 10.27 37.67 32.48 30.17 32.48 30.17 36.92 49.6 36.92 49.6 32.48 42.11 32.48 42.11 10.27 49.6 10.27 49.6 5.83 30.17 5.83"/>
  <path class="st0" d="M113.35,28.18h4.97c7.01,0,11.06-4.58,11.06-11.7s-4.44-11.09-10.96-11.09-10.63,4.24-10.63,10.39h5.25c0-3.37,1.92-5.52,5.38-5.52,3.7,0,5.79,2.57,5.79,6.52s-2.77,6.83-7.13,6.83h-8.9v13.31h19.99v-4.57h-14.82v-4.18Z"/>
</svg>